<svg width="102" height="100" viewBox="0 0 102 100" fill="none" xmlns="http://www.w3.org/2000/svg">
<path d="M52 14C45.796 14 39.9585 15.5694 34.8629 18.3327L24.5643 8.19273C32.4408 3.01337 41.8685 0 52 0C79.6142 0 102 22.3858 102 50C102 77.6142 79.6142 100 52 100C24.3858 100 2 77.6142 2 50C2 42.8238 3.5118 36.0007 6.23425 29.8319L0.109161 23.9494L27.0904 18L22.5491 45.5005L16.9236 40.0978L17.2806 40.4493C16.4458 43.4909 16 46.6934 16 50C16 69.8822 32.1178 86 52 86C71.8822 86 88 69.8822 88 50C88 30.1178 71.8822 14 52 14Z" fill="#C4C4C4"/>
</svg>
